<svg xmlns="http://www.w3.org/2000/svg" xmlns:xlink="http://www.w3.org/1999/xlink" version="1.1" width="256" height="256" viewBox="0 0 256 256" xml:space="preserve">

<defs>
</defs>
<g style="stroke: none; stroke-width: 0; stroke-dasharray: none; stroke-linecap: butt; stroke-linejoin: miter; stroke-miterlimit: 10; fill: none; fill-rule: nonzero; opacity: 1;" transform="translate(1.4065934065934016 1.4065934065934016) scale(2.81 2.81)" >
	<path d="M 77.174 0 H 12.826 C 9.117 0 6.099 3.018 6.099 6.727 v 12.26 v 64.287 c 0 3.709 3.018 6.727 6.727 6.727 h 64.348 c 3.709 0 6.727 -3.018 6.727 -6.727 V 18.987 V 6.727 C 83.9 3.018 80.883 0 77.174 0 z M 10.099 6.727 C 10.099 5.223 11.322 4 12.826 4 h 64.348 C 78.678 4 79.9 5.223 79.9 6.727 v 10.26 H 10.099 V 6.727 z M 77.174 86 H 12.826 c -1.504 0 -2.727 -1.223 -2.727 -2.727 V 20.987 H 79.9 v 62.287 C 79.9 84.777 78.678 86 77.174 86 z" style="stroke: none; stroke-width: 1; stroke-dasharray: none; stroke-linecap: butt; stroke-linejoin: miter; stroke-miterlimit: 10; fill: rgb(0,0,0); fill-rule: nonzero; opacity: 1;" transform=" matrix(1 0 0 1 0 0) " stroke-linecap="round" />
	<path d="M 45 30.286 c -13.228 0 -23.989 10.761 -23.989 23.989 S 31.772 78.263 45 78.263 s 23.988 -10.761 23.988 -23.988 S 58.228 30.286 45 30.286 z M 45 34.286 c 9.969 0 18.233 7.344 19.725 16.902 c -1.828 0.461 -3.499 1.392 -4.832 2.726 c -1.237 1.237 -2.882 1.918 -4.631 1.918 c -1.75 0 -3.394 -0.681 -4.631 -1.918 c -1.992 -1.993 -4.642 -3.09 -7.459 -3.09 c -2.818 0 -5.467 1.097 -7.459 3.09 c -1.237 1.237 -2.882 1.918 -4.631 1.918 c -1.75 0 -3.394 -0.681 -4.631 -1.919 c -0.4 -0.4 -0.857 -0.767 -1.365 -1.114 C 25.846 42.466 34.476 34.286 45 34.286 z M 45 74.263 c -9.69 0 -17.786 -6.933 -19.602 -16.098 c 1.682 1.081 3.637 1.667 5.684 1.667 c 2.817 0 5.467 -1.097 7.459 -3.09 c 1.237 -1.237 2.881 -1.918 4.63 -1.918 c 1.749 0 3.394 0.681 4.631 1.918 c 1.992 1.992 4.641 3.09 7.459 3.09 c 2.817 0 5.467 -1.097 7.46 -3.09 c 0.629 -0.63 1.385 -1.106 2.214 -1.427 C 64.389 65.852 55.67 74.263 45 74.263 z" style="stroke: none; stroke-width: 1; stroke-dasharray: none; stroke-linecap: butt; stroke-linejoin: miter; stroke-miterlimit: 10; fill: rgb(0,0,0); fill-rule: nonzero; opacity: 1;" transform=" matrix(1 0 0 1 0 0) " stroke-linecap="round" />
	<path d="M 74.049 8.494 h -8.257 c -1.104 0 -2 0.896 -2 2 s 0.896 2 2 2 h 8.257 c 1.104 0 2 -0.896 2 -2 S 75.153 8.494 74.049 8.494 z" style="stroke: none; stroke-width: 1; stroke-dasharray: none; stroke-linecap: butt; stroke-linejoin: miter; stroke-miterlimit: 10; fill: rgb(0,0,0); fill-rule: nonzero; opacity: 1;" transform=" matrix(1 0 0 1 0 0) " stroke-linecap="round" />
	<path d="M 58.413 8.494 h -8.258 c -1.104 0 -2 0.896 -2 2 s 0.896 2 2 2 h 8.258 c 1.104 0 2 -0.896 2 -2 S 59.518 8.494 58.413 8.494 z" style="stroke: none; stroke-width: 1; stroke-dasharray: none; stroke-linecap: butt; stroke-linejoin: miter; stroke-miterlimit: 10; fill: rgb(0,0,0); fill-rule: nonzero; opacity: 1;" transform=" matrix(1 0 0 1 0 0) " stroke-linecap="round" />
	<path d="M 33.981 8.494 h -18.03 c -1.104 0 -2 0.896 -2 2 s 0.896 2 2 2 h 18.03 c 1.104 0 2 -0.896 2 -2 S 35.085 8.494 33.981 8.494 z" style="stroke: none; stroke-width: 1; stroke-dasharray: none; stroke-linecap: butt; stroke-linejoin: miter; stroke-miterlimit: 10; fill: rgb(0,0,0); fill-rule: nonzero; opacity: 1;" transform=" matrix(1 0 0 1 0 0) " stroke-linecap="round" />
</g>
</svg>