<svg xmlns="http://www.w3.org/2000/svg" width="36.475" height="39.47" viewBox="0 0 36.475 39.47">
  <g id="Group_27" data-name="Group 27" transform="translate(-5644.777 -5689.265)">
    <path id="Path_233" data-name="Path 233" d="M11.346,11.865a9.615,9.615,0,1,1,9.615,9.615A9.623,9.623,0,0,1,11.346,11.865Zm17.205,26.82H27.033a4.554,4.554,0,1,1,0-9.109h2.518V27.607a14.158,14.158,0,0,1,.3-2.728,10.835,10.835,0,0,0-2.814-.364H14.889A11.653,11.653,0,0,0,3.25,36.154,5.563,5.563,0,0,0,8.816,41.72h20a4.687,4.687,0,0,1-.263-1.518V38.684Z" transform="translate(5641.527 5687.015)" fill="#05a45c"/>
    <path id="Path_234" data-name="Path 234" d="M31.358,23.154a.975.975,0,0,1,.037,1.378L25.007,31.27a2.444,2.444,0,0,1-1.769.761h-.059a2.443,2.443,0,0,1-1.789-.848l-2.753-3.2a.975.975,0,1,1,1.478-1.273l2.753,3.2a.484.484,0,0,0,.358.169.456.456,0,0,0,.366-.152l6.387-6.737a.975.975,0,0,1,1.379-.036Z" transform="translate(5649 5692.61)" fill="#05a45c" stroke="#05a45c" stroke-width="1"/>
  </g>
</svg>
