<svg xmlns="http://www.w3.org/2000/svg" width="33.049" height="39.47" viewBox="0 0 33.049 39.47">
  <g id="Group_28" data-name="Group 28" transform="translate(-5644.777 -5689.265)">
    <path id="Path_233" data-name="Path 233" d="M11.346,11.865a9.615,9.615,0,1,1,9.615,9.615A9.623,9.623,0,0,1,11.346,11.865Zm17.205,26.82H27.033a4.554,4.554,0,1,1,0-9.109h2.518V27.607a14.158,14.158,0,0,1,.3-2.728,10.835,10.835,0,0,0-2.814-.364H14.889A11.653,11.653,0,0,0,3.25,36.154,5.563,5.563,0,0,0,8.816,41.72h20a4.687,4.687,0,0,1-.263-1.518V38.684Z" transform="translate(5641.527 5687.015)" fill="#da0001"/>
    <g id="_icons" transform="translate(5668 5718)">
      <path id="Path_236" data-name="Path 236" d="M6.763,11.526a.476.476,0,0,1,0-.953,3.81,3.81,0,1,0-3.81-3.81.476.476,0,0,1-.953,0,4.763,4.763,0,1,1,4.763,4.763Z" transform="translate(-2 -2)" fill="#da0001" stroke="#da0002" stroke-width="0.6"/>
      <path id="Path_237" data-name="Path 237" d="M10.476,9a.476.476,0,0,1,.476.476v.755l.813.813a.476.476,0,1,1-.673.674l-.953-.953a.476.476,0,0,1-.14-.337V9.476A.476.476,0,0,1,10.476,9Z" transform="translate(-6.19 -5.666)" fill="#da0001" stroke="#da0002" stroke-width="0.6"/>
    </g>
  </g>
</svg>
