<svg xmlns="http://www.w3.org/2000/svg" width="37.446" height="39.47" viewBox="0 0 37.446 39.47">
  <path id="Path_231" data-name="Path 231" d="M11.346,11.865a9.615,9.615,0,1,1,9.615,9.615A9.623,9.623,0,0,1,11.346,11.865Zm17.205,26.82H27.033a4.554,4.554,0,1,1,0-9.109h1.518V28.058a4.518,4.518,0,0,1,1.3-3.178,10.835,10.835,0,0,0-2.814-.364H14.889A11.653,11.653,0,0,0,3.25,36.154,5.563,5.563,0,0,0,8.816,41.72h20a4.687,4.687,0,0,1-.263-1.518V38.684Zm9.109.668a7.319,7.319,0,0,0,.4-.668h-.4Zm1.518-6.74H34.624V28.058a1.518,1.518,0,0,0-3.036,0v4.554H27.033a1.518,1.518,0,0,0,0,3.036h4.554V40.2a1.518,1.518,0,0,0,3.036,0V35.648h4.554a1.518,1.518,0,0,0,0-3.036Z" transform="translate(-3.25 -2.25)" fill="#1777ed"/>
</svg>
